<svg width="22" height="22" viewBox="0 0 22 22" fill="none" xmlns="http://www.w3.org/2000/svg">
<g id="cart logo" clip-path="url(#clip0_10_10)">
<path id="Vector" d="M6.875 4.12668V5.50168H19.9375V8.22353L18.4121 13.0642H6.44239L4.72364 0.6875H0.6875V2.0625H3.52636L5.24511 14.4392H19.4205L21.3125 8.43502V4.12668H6.875ZM7.60478 15.8273C6.87569 15.8281 6.1767 16.1181 5.66115 16.6337C5.14561 17.1492 4.85561 17.8482 4.85478 18.5773C4.85478 19.3066 5.14451 20.0061 5.66024 20.5218C6.17596 21.0376 6.87544 21.3273 7.60478 21.3273C8.33413 21.3273 9.0336 21.0376 9.54932 20.5218C10.0651 20.0061 10.3548 19.3066 10.3548 18.5773C10.354 17.8482 10.064 17.1492 9.54842 16.6336C9.03287 16.1181 8.33388 15.8281 7.60478 15.8273ZM7.60478 19.9523C7.33283 19.9523 7.06699 19.8716 6.84087 19.7206C6.61475 19.5695 6.43852 19.3547 6.33445 19.1035C6.23038 18.8522 6.20315 18.5758 6.2562 18.309C6.30926 18.0423 6.44021 17.7973 6.63251 17.605C6.82481 17.4127 7.06981 17.2818 7.33653 17.2287C7.60326 17.1756 7.87972 17.2029 8.13097 17.3069C8.38222 17.411 8.59697 17.5873 8.74805 17.8134C8.89914 18.0395 8.97978 18.3053 8.97978 18.5773C8.97935 18.9418 8.83434 19.2913 8.57658 19.5491C8.31881 19.8068 7.96932 19.9519 7.60478 19.9523ZM17.2298 15.8273C16.5007 15.8281 15.8017 16.1181 15.2862 16.6337C14.7706 17.1492 14.4806 17.8482 14.4798 18.5773C14.4798 19.3066 14.7695 20.0061 15.2852 20.5218C15.801 21.0376 16.5004 21.3273 17.2298 21.3273C17.9591 21.3273 18.6586 21.0376 19.1743 20.5218C19.6901 20.0061 19.9798 19.3066 19.9798 18.5773C19.979 17.8482 19.689 17.1492 19.1734 16.6336C18.6579 16.1181 17.9589 15.8281 17.2298 15.8273ZM17.2298 19.9523C16.9578 19.9523 16.692 19.8716 16.4659 19.7206C16.2398 19.5695 16.0635 19.3547 15.9594 19.1035C15.8554 18.8522 15.8281 18.5758 15.8812 18.309C15.9343 18.0423 16.0652 17.7973 16.2575 17.605C16.4498 17.4127 16.6948 17.2818 16.9615 17.2287C17.2283 17.1756 17.5047 17.2029 17.756 17.3069C18.0072 17.411 18.222 17.5873 18.3731 17.8134C18.5241 18.0395 18.6048 18.3053 18.6048 18.5773C18.6043 18.9418 18.4593 19.2913 18.2016 19.5491C17.9438 19.8068 17.5943 19.9519 17.2298 19.9523Z" fill="white"/>
</g>
<defs>
<clipPath id="clip0_10_10">
<rect width="22" height="22" fill="white"/>
</clipPath>
</defs>
</svg>
